<svg width="265" height="73" viewBox="0 0 265 73" fill="none" xmlns="http://www.w3.org/2000/svg">
<g filter="url(#filter0_dd_1523_3053)">
<mask id="path-1-outside-1_1523_3053" maskUnits="userSpaceOnUse" x="5" y="0" width="260" height="65" fill="black">
<rect fill="white" x="5" width="260" height="65"/>
<path d="M45.0094 28.6406C45.8335 32.9573 45.1996 37.0311 43.1076 40.8621C40.872 44.8508 37.5958 47.2572 33.2791 48.0814L29.13 48.8736L30.9184 58.2404L17.4654 60.8089L11.6923 30.5711L8.73762 31.1352L9.25577 17.8096L25.2233 14.761C30.2106 13.8088 34.517 14.6372 38.1426 17.2462C41.7603 19.8133 44.0492 23.6115 45.0094 28.6406ZM31.6461 30.9965C31.47 30.0745 31.0795 29.2803 30.4745 28.614C29.8614 27.9057 29.1149 27.6356 28.2348 27.8036L25.2801 28.3677L26.7804 36.2258L29.3579 35.7337C30.3637 35.5417 31.051 34.9326 31.4198 33.9066C31.7707 33.0143 31.8461 32.0443 31.6461 30.9965ZM90.2164 50.4413L75.7699 51.9785L73.9174 46.0613L61.5711 47.3751L60.4325 53.6106L46.4952 55.0936L51.6371 22.3658L48.5823 22.6909L51.6002 10.5273L73.2381 8.22482L90.2164 50.4413ZM69.9619 34.8972L65.1506 22.3438L63.1524 35.6218L69.9619 34.8972Z"/>
<path d="M127.467 49.0867L111.096 49.7419L104.696 37.0597L105.213 49.9774L91.5275 50.5251L90.2913 19.6378L87.2857 19.7581L89.7769 6.7841L109.409 5.99837C114.056 5.81238 117.909 7.13135 120.969 9.95526C124.071 12.7775 125.715 16.512 125.901 21.159C126.145 27.2554 123.941 31.9553 119.291 35.2586L127.467 49.0867ZM112.049 22.3539C111.95 19.8812 110.345 18.7071 107.233 18.8317L103.971 18.9622L104.26 26.1884L107.522 26.0579C110.634 25.9333 112.143 24.6987 112.049 22.3539ZM162.423 3.93566L158.728 19.2545L144.969 19.0974L144.94 21.5932L161.003 21.7766L157.931 33.0063L144.812 32.8565L144.781 35.5443L160.588 35.7248L157.168 49.3826L130.93 49.0831L131.278 18.5571L128.27 18.5227L131.43 5.30992L149.604 5.51742L150.2 3.79611L162.423 3.93566ZM202.634 29.8775C202.195 36.6045 199.607 41.8659 194.87 45.6616C190.314 49.2982 184.631 50.8943 177.818 50.45L164.982 49.6127L166.981 18.9579L163.979 18.7621L167.831 5.92954L183.414 6.9459C189.587 7.34856 194.435 9.71712 197.958 14.0516C201.478 18.4286 203.037 23.7039 202.634 29.8775ZM188.695 29.2249C188.87 26.5426 188.242 24.3638 186.812 22.6885C185.382 21.0132 183.326 20.0881 180.644 19.9131L179.544 36.7733C182.099 36.9399 184.21 36.3721 185.876 35.0698C187.589 33.7278 188.528 31.7794 188.695 29.2249ZM218.172 53.8866L204.629 52.3285L208.155 21.6827L205.167 21.3389L209.76 8.85405L223.175 10.3975L218.172 53.8866ZM256.099 46.0768C255.268 50.7394 252.929 54.1364 249.082 56.2678C245.532 58.1922 241.363 58.7277 236.574 57.8743C231.575 56.9835 226.803 54.7028 222.256 51.0323L227.882 39.1631L233.052 42.6198C235.163 43.9061 237.037 44.6952 238.676 44.9872C240.566 45.324 241.631 44.8204 241.87 43.4762C242.05 42.4681 240.717 41.1905 237.873 39.6434C234.198 37.6451 231.612 35.8624 230.115 34.2953C227.46 31.4386 226.499 27.952 227.233 23.8355C227.982 19.6351 229.976 16.5884 233.217 14.6957C236.268 12.899 239.935 12.3825 244.22 13.146L246.236 13.5053C246.488 13.5502 246.842 13.6349 247.296 13.7592C247.793 13.891 248.391 14.0626 249.09 14.2738L249.778 12.9663L260.726 17.1927L254.446 30.1803C253.313 29.2417 251.819 28.2604 249.965 27.2365C247.873 26.0837 246.261 25.4062 245.127 25.2041C243.11 24.8448 241.982 25.3372 241.743 26.6813C241.593 27.5214 242.92 28.7113 245.722 30.2509C249.347 32.2837 251.866 34.0762 253.28 35.6283C255.885 38.5195 256.825 42.0024 256.099 46.0768Z"/>
</mask>
<path d="M45.0094 28.6406C45.8335 32.9573 45.1996 37.0311 43.1076 40.8621C40.872 44.8508 37.5958 47.2572 33.2791 48.0814L29.13 48.8736L30.9184 58.2404L17.4654 60.8089L11.6923 30.5711L8.73762 31.1352L9.25577 17.8096L25.2233 14.761C30.2106 13.8088 34.517 14.6372 38.1426 17.2462C41.7603 19.8133 44.0492 23.6115 45.0094 28.6406ZM31.6461 30.9965C31.47 30.0745 31.0795 29.2803 30.4745 28.614C29.8614 27.9057 29.1149 27.6356 28.2348 27.8036L25.2801 28.3677L26.7804 36.2258L29.3579 35.7337C30.3637 35.5417 31.051 34.9326 31.4198 33.9066C31.7707 33.0143 31.8461 32.0443 31.6461 30.9965ZM90.2164 50.4413L75.7699 51.9785L73.9174 46.0613L61.5711 47.3751L60.4325 53.6106L46.4952 55.0936L51.6371 22.3658L48.5823 22.6909L51.6002 10.5273L73.2381 8.22482L90.2164 50.4413ZM69.9619 34.8972L65.1506 22.3438L63.1524 35.6218L69.9619 34.8972Z" fill="white"/>
<path d="M127.467 49.0867L111.096 49.7419L104.696 37.0597L105.213 49.9774L91.5275 50.5251L90.2913 19.6378L87.2857 19.7581L89.7769 6.7841L109.409 5.99837C114.056 5.81238 117.909 7.13135 120.969 9.95526C124.071 12.7775 125.715 16.512 125.901 21.159C126.145 27.2554 123.941 31.9553 119.291 35.2586L127.467 49.0867ZM112.049 22.3539C111.95 19.8812 110.345 18.7071 107.233 18.8317L103.971 18.9622L104.26 26.1884L107.522 26.0579C110.634 25.9333 112.143 24.6987 112.049 22.3539ZM162.423 3.93566L158.728 19.2545L144.969 19.0974L144.94 21.5932L161.003 21.7766L157.931 33.0063L144.812 32.8565L144.781 35.5443L160.588 35.7248L157.168 49.3826L130.93 49.0831L131.278 18.5571L128.27 18.5227L131.43 5.30992L149.604 5.51742L150.2 3.79611L162.423 3.93566ZM202.634 29.8775C202.195 36.6045 199.607 41.8659 194.87 45.6616C190.314 49.2982 184.631 50.8943 177.818 50.45L164.982 49.6127L166.981 18.9579L163.979 18.7621L167.831 5.92954L183.414 6.9459C189.587 7.34856 194.435 9.71712 197.958 14.0516C201.478 18.4286 203.037 23.7039 202.634 29.8775ZM188.695 29.2249C188.87 26.5426 188.242 24.3638 186.812 22.6885C185.382 21.0132 183.326 20.0881 180.644 19.9131L179.544 36.7733C182.099 36.9399 184.21 36.3721 185.876 35.0698C187.589 33.7278 188.528 31.7794 188.695 29.2249ZM218.172 53.8866L204.629 52.3285L208.155 21.6827L205.167 21.3389L209.76 8.85405L223.175 10.3975L218.172 53.8866ZM256.099 46.0768C255.268 50.7394 252.929 54.1364 249.082 56.2678C245.532 58.1922 241.363 58.7277 236.574 57.8743C231.575 56.9835 226.803 54.7028 222.256 51.0323L227.882 39.1631L233.052 42.6198C235.163 43.9061 237.037 44.6952 238.676 44.9872C240.566 45.324 241.631 44.8204 241.87 43.4762C242.05 42.4681 240.717 41.1905 237.873 39.6434C234.198 37.6451 231.612 35.8624 230.115 34.2953C227.46 31.4386 226.499 27.952 227.233 23.8355C227.982 19.6351 229.976 16.5884 233.217 14.6957C236.268 12.899 239.935 12.3825 244.22 13.146L246.236 13.5053C246.488 13.5502 246.842 13.6349 247.296 13.7592C247.793 13.891 248.391 14.0626 249.09 14.2738L249.778 12.9663L260.726 17.1927L254.446 30.1803C253.313 29.2417 251.819 28.2604 249.965 27.2365C247.873 26.0837 246.261 25.4062 245.127 25.2041C243.11 24.8448 241.982 25.3372 241.743 26.6813C241.593 27.5214 242.92 28.7113 245.722 30.2509C249.347 32.2837 251.866 34.0762 253.28 35.6283C255.885 38.5195 256.825 42.0024 256.099 46.0768Z" fill="#F01919"/>
<path d="M43.1076 40.8621L45.7246 42.3289L45.7327 42.3145L45.7406 42.2999L43.1076 40.8621ZM33.2791 48.0814L32.7165 45.1346L33.2791 48.0814ZM29.13 48.8736L28.5674 45.9268L25.6207 46.4894L26.1833 49.4362L29.13 48.8736ZM30.9184 58.2404L31.481 61.1872L34.4278 60.6245L33.8652 57.6778L30.9184 58.2404ZM17.4654 60.8089L14.5186 61.3715L15.0812 64.3183L18.028 63.7557L17.4654 60.8089ZM11.6923 30.5711L14.639 30.0085L14.0764 27.0617L11.1296 27.6243L11.6923 30.5711ZM8.73762 31.1352L5.73989 31.0186L5.59325 34.7897L9.30023 34.082L8.73762 31.1352ZM9.25577 17.8096L8.69315 14.8628L6.35069 15.3101L6.25803 17.693L9.25577 17.8096ZM38.1426 17.2462L36.3904 19.6813L36.3984 19.6871L36.4065 19.6928L38.1426 17.2462ZM31.6461 30.9965L28.6993 31.5592L31.6461 30.9965ZM30.4745 28.614L28.2061 30.5773L28.2295 30.6043L28.2534 30.6306L30.4745 28.614ZM28.2348 27.8036L28.7974 30.7504L28.2348 27.8036ZM25.2801 28.3677L24.7175 25.421L21.7707 25.9836L22.3334 28.9304L25.2801 28.3677ZM26.7804 36.2258L23.8337 36.7884L24.3963 39.7352L27.343 39.1726L26.7804 36.2258ZM29.3579 35.7337L28.7953 32.7869L29.3579 35.7337ZM31.4198 33.9066L28.6279 32.8087L28.6117 32.8501L28.5966 32.8919L31.4198 33.9066ZM45.0094 28.6406L42.0626 29.2032C42.7573 32.842 42.2309 36.2082 40.4746 39.4243L43.1076 40.8621L45.7406 42.2999C48.1683 37.8541 48.9097 33.0726 47.9561 28.078L45.0094 28.6406ZM43.1076 40.8621L40.4906 39.3953C38.6677 42.6476 36.124 44.4841 32.7165 45.1346L33.2791 48.0814L33.8417 51.0282C39.0676 50.0304 43.0762 47.054 45.7246 42.3289L43.1076 40.8621ZM33.2791 48.0814L32.7165 45.1346L28.5674 45.9268L29.13 48.8736L29.6927 51.8203L33.8417 51.0282L33.2791 48.0814ZM29.13 48.8736L26.1833 49.4362L27.9716 58.803L30.9184 58.2404L33.8652 57.6778L32.0768 48.311L29.13 48.8736ZM30.9184 58.2404L30.3558 55.2936L16.9028 57.8621L17.4654 60.8089L18.028 63.7557L31.481 61.1872L30.9184 58.2404ZM17.4654 60.8089L20.4122 60.2463L14.639 30.0085L11.6923 30.5711L8.74548 31.1337L14.5186 61.3715L17.4654 60.8089ZM11.6923 30.5711L11.1296 27.6243L8.17501 28.1884L8.73762 31.1352L9.30023 34.082L12.2549 33.5178L11.6923 30.5711ZM8.73762 31.1352L11.7354 31.2518L12.2535 17.9262L9.25577 17.8096L6.25803 17.693L5.73989 31.0186L8.73762 31.1352ZM9.25577 17.8096L9.81838 20.7564L25.786 17.7078L25.2233 14.761L24.6607 11.8142L8.69315 14.8628L9.25577 17.8096ZM25.2233 14.761L25.786 17.7078C30.0855 16.8869 33.5275 17.6211 36.3904 19.6813L38.1426 17.2462L39.8949 14.8112C35.5066 11.6533 30.3357 10.7307 24.6607 11.8142L25.2233 14.761ZM38.1426 17.2462L36.4065 19.6928C39.2949 21.7425 41.2235 24.8085 42.0626 29.2032L45.0094 28.6406L47.9561 28.078C46.8748 22.4144 44.2256 17.8842 39.8788 14.7996L38.1426 17.2462ZM31.6461 30.9965L34.5928 30.4339C34.3179 28.9941 33.688 27.6903 32.6955 26.5973L30.4745 28.614L28.2534 30.6306C28.471 30.8703 28.6221 31.155 28.6993 31.5592L31.6461 30.9965ZM30.4745 28.614L32.7428 26.6506C31.4683 25.1782 29.6612 24.4771 27.6721 24.8569L28.2348 27.8036L28.7974 30.7504C28.7775 30.7542 28.6304 30.7723 28.4341 30.7012C28.2448 30.6328 28.1747 30.541 28.2061 30.5773L30.4745 28.614ZM28.2348 27.8036L27.6721 24.8569L24.7175 25.421L25.2801 28.3677L25.8427 31.3145L28.7974 30.7504L28.2348 27.8036ZM25.2801 28.3677L22.3334 28.9304L23.8337 36.7884L26.7804 36.2258L29.7272 35.6632L28.2269 27.8051L25.2801 28.3677ZM26.7804 36.2258L27.343 39.1726L29.9205 38.6805L29.3579 35.7337L28.7953 32.7869L26.2178 33.279L26.7804 36.2258ZM29.3579 35.7337L29.9205 38.6805C32.0481 38.2743 33.5436 36.8671 34.243 34.9213L31.4198 33.9066L28.5966 32.8919C28.5727 32.9585 28.5576 32.9793 28.5635 32.9702C28.5705 32.9593 28.5941 32.9266 28.6381 32.8876C28.6828 32.848 28.7299 32.8184 28.7695 32.7997C28.8073 32.7818 28.8206 32.7821 28.7953 32.7869L29.3579 35.7337ZM31.4198 33.9066L34.2117 35.0045C34.793 33.5263 34.8869 31.974 34.5928 30.4339L31.6461 30.9965L28.6993 31.5592C28.8053 32.1146 28.7484 32.5023 28.6279 32.8087L31.4198 33.9066ZM90.2164 50.4413L90.5338 53.4245L94.4807 53.0045L92.9997 49.3219L90.2164 50.4413ZM75.7699 51.9785L72.9069 52.8749L73.6417 55.2219L76.0873 54.9617L75.7699 51.9785ZM73.9174 46.0613L76.7804 45.165L76.0456 42.8179L73.6 43.0782L73.9174 46.0613ZM61.5711 47.3751L61.2537 44.3919L59.0229 44.6293L58.6199 46.8362L61.5711 47.3751ZM60.4325 53.6106L60.7499 56.5937L62.9807 56.3564L63.3837 54.1495L60.4325 53.6106ZM46.4952 55.0936L43.5315 54.628L42.9247 58.4905L46.8126 58.0768L46.4952 55.0936ZM51.6371 22.3658L54.6007 22.8314L55.2076 18.969L51.3197 19.3827L51.6371 22.3658ZM48.5823 22.6909L45.6706 21.9684L44.6387 26.1274L48.8998 25.674L48.5823 22.6909ZM51.6002 10.5273L51.2828 7.5441L49.1943 7.76634L48.6885 9.80484L51.6002 10.5273ZM73.2381 8.22482L76.0214 7.10544L75.1754 5.00174L72.9206 5.24166L73.2381 8.22482ZM69.9619 34.8972L70.2793 37.8804L74.1598 37.4674L72.7632 33.8236L69.9619 34.8972ZM65.1506 22.3438L67.9519 21.2702L63.8781 10.6409L62.184 21.8974L65.1506 22.3438ZM63.1524 35.6218L60.1858 35.1753L59.6078 39.0159L63.4698 38.605L63.1524 35.6218ZM90.2164 50.4413L89.8989 47.4582L75.4525 48.9954L75.7699 51.9785L76.0873 54.9617L90.5338 53.4245L90.2164 50.4413ZM75.7699 51.9785L78.6329 51.0822L76.7804 45.165L73.9174 46.0613L71.0544 46.9577L72.9069 52.8749L75.7699 51.9785ZM73.9174 46.0613L73.6 43.0782L61.2537 44.3919L61.5711 47.3751L61.8885 50.3582L74.2348 49.0445L73.9174 46.0613ZM61.5711 47.3751L58.6199 46.8362L57.4813 53.0717L60.4325 53.6106L63.3837 54.1495L64.5223 47.914L61.5711 47.3751ZM60.4325 53.6106L60.1151 50.6274L46.1777 52.1105L46.4952 55.0936L46.8126 58.0768L60.7499 56.5937L60.4325 53.6106ZM46.4952 55.0936L49.4588 55.5592L54.6007 22.8314L51.6371 22.3658L48.6734 21.9002L43.5315 54.628L46.4952 55.0936ZM51.6371 22.3658L51.3197 19.3827L48.2649 19.7077L48.5823 22.6909L48.8998 25.674L51.9545 25.349L51.6371 22.3658ZM48.5823 22.6909L51.4941 23.4133L54.512 11.2497L51.6002 10.5273L48.6885 9.80484L45.6706 21.9684L48.5823 22.6909ZM51.6002 10.5273L51.9177 13.5104L73.5555 11.208L73.2381 8.22482L72.9206 5.24166L51.2828 7.5441L51.6002 10.5273ZM73.2381 8.22482L70.4547 9.3442L87.433 51.5607L90.2164 50.4413L92.9997 49.3219L76.0214 7.10544L73.2381 8.22482ZM69.9619 34.8972L72.7632 33.8236L67.9519 21.2702L65.1506 22.3438L62.3493 23.4175L67.1606 35.9708L69.9619 34.8972ZM65.1506 22.3438L62.184 21.8974L60.1858 35.1753L63.1524 35.6218L66.119 36.0683L68.1172 22.7903L65.1506 22.3438ZM63.1524 35.6218L63.4698 38.605L70.2793 37.8804L69.9619 34.8972L69.6445 31.914L62.8349 32.6386L63.1524 35.6218ZM127.467 49.0867L127.587 52.0843L132.605 51.8834L130.049 47.5599L127.467 49.0867ZM111.096 49.7419L108.418 51.0935L109.287 52.8167L111.216 52.7395L111.096 49.7419ZM104.696 37.0597L107.374 35.7081L101.698 37.1797L104.696 37.0597ZM105.213 49.9774L105.333 52.975L108.33 52.855L108.21 49.8574L105.213 49.9774ZM91.5275 50.5251L88.5299 50.6451L88.6499 53.6427L91.6475 53.5227L91.5275 50.5251ZM90.2913 19.6378L93.2889 19.5178L93.1689 16.5202L90.1713 16.6402L90.2913 19.6378ZM87.2857 19.7581L84.3395 19.1924L83.6263 22.907L87.4057 22.7557L87.2857 19.7581ZM89.7769 6.7841L89.6569 3.7865L87.2794 3.88166L86.8307 6.2184L89.7769 6.7841ZM120.969 9.95526L118.934 12.1597L118.942 12.167L118.95 12.1743L120.969 9.95526ZM119.291 35.2586L117.554 32.8128L115.305 34.4105L116.709 36.7854L119.291 35.2586ZM112.049 22.3539L109.052 22.4738L112.049 22.3539ZM107.233 18.8317L107.113 15.8341L107.233 18.8317ZM103.971 18.9622L103.851 15.9646L100.854 16.0846L100.974 19.0822L103.971 18.9622ZM104.26 26.1884L101.263 26.3084L101.383 29.306L104.38 29.186L104.26 26.1884ZM107.522 26.0579L107.402 23.0603L107.522 26.0579ZM127.467 49.0867L127.347 46.0891L110.976 46.7443L111.096 49.7419L111.216 52.7395L127.587 52.0843L127.467 49.0867ZM111.096 49.7419L113.774 48.3903L107.374 35.7081L104.696 37.0597L102.017 38.4113L108.418 51.0935L111.096 49.7419ZM104.696 37.0597L101.698 37.1797L102.215 50.0973L105.213 49.9774L108.21 49.8574L107.693 36.9397L104.696 37.0597ZM105.213 49.9774L105.093 46.9798L91.4075 47.5275L91.5275 50.5251L91.6475 53.5227L105.333 52.975L105.213 49.9774ZM91.5275 50.5251L94.5251 50.4051L93.2889 19.5178L90.2913 19.6378L87.2937 19.7578L88.5299 50.6451L91.5275 50.5251ZM90.2913 19.6378L90.1713 16.6402L87.1657 16.7605L87.2857 19.7581L87.4057 22.7557L90.4113 22.6354L90.2913 19.6378ZM87.2857 19.7581L90.2319 20.3238L92.723 7.3498L89.7769 6.7841L86.8307 6.2184L84.3395 19.1924L87.2857 19.7581ZM89.7769 6.7841L89.8968 9.7817L109.529 8.99597L109.409 5.99837L109.289 3.00076L89.6569 3.7865L89.7769 6.7841ZM109.409 5.99837L109.529 8.99597C113.483 8.83773 116.53 9.94083 118.934 12.1597L120.969 9.95526L123.003 7.7508C119.289 4.32187 114.629 2.78704 109.289 3.00076L109.409 5.99837ZM120.969 9.95526L118.95 12.1743C121.39 14.3946 122.745 17.3384 122.903 21.279L125.901 21.159L128.898 21.039C128.684 15.6856 126.751 11.1603 122.988 7.73622L120.969 9.95526ZM125.901 21.159L122.903 21.279C123.11 26.4464 121.311 30.144 117.554 32.8128L119.291 35.2586L121.029 37.7043C126.572 33.7666 129.179 28.0645 128.898 21.039L125.901 21.159ZM119.291 35.2586L116.709 36.7854L124.884 50.6135L127.467 49.0867L130.049 47.5599L121.874 33.7318L119.291 35.2586ZM112.049 22.3539L115.047 22.2339C114.971 20.3288 114.261 18.4542 112.542 17.1972C110.958 16.0393 108.985 15.7591 107.113 15.8341L107.233 18.8317L107.353 21.8293C108.592 21.7797 108.978 22.0242 109 22.0404C109.002 22.0418 108.994 22.0355 108.983 22.0222C108.972 22.009 108.97 22.0029 108.975 22.0132C108.985 22.0353 109.039 22.1651 109.052 22.4738L112.049 22.3539ZM107.233 18.8317L107.113 15.8341L103.851 15.9646L103.971 18.9622L104.091 21.9598L107.353 21.8293L107.233 18.8317ZM103.971 18.9622L100.974 19.0822L101.263 26.3084L104.26 26.1884L107.258 26.0684L106.969 18.8422L103.971 18.9622ZM104.26 26.1884L104.38 29.186L107.642 29.0555L107.522 26.0579L107.402 23.0603L104.14 23.1908L104.26 26.1884ZM107.522 26.0579L107.642 29.0555C109.488 28.9816 111.407 28.5716 112.887 27.3604C114.523 26.0224 115.123 24.1326 115.047 22.2339L112.049 22.3539L109.052 22.4738C109.062 22.7318 109.023 22.818 109.029 22.8012C109.033 22.7929 109.042 22.773 109.059 22.7499C109.076 22.7269 109.089 22.7159 109.088 22.7165C109.059 22.74 108.668 23.0096 107.402 23.0603L107.522 26.0579ZM162.423 3.93566L165.34 4.63913L166.222 0.97884L162.457 0.935855L162.423 3.93566ZM158.728 19.2545L158.694 22.2543L161.084 22.2816L161.644 19.9579L158.728 19.2545ZM144.969 19.0974L145.003 16.0976L142.003 16.0633L141.969 19.0631L144.969 19.0974ZM144.94 21.5932L141.941 21.559L141.906 24.5588L144.906 24.593L144.94 21.5932ZM161.003 21.7766L163.897 22.5683L164.922 18.8212L161.038 18.7768L161.003 21.7766ZM157.931 33.0063L157.897 36.0061L160.213 36.0325L160.825 33.798L157.931 33.0063ZM144.812 32.8565L144.846 29.8567L141.846 29.8224L141.812 32.8222L144.812 32.8565ZM144.781 35.5443L141.781 35.5101L141.747 38.5099L144.747 38.5441L144.781 35.5443ZM160.588 35.7248L163.498 36.4535L164.421 32.7683L160.622 32.725L160.588 35.7248ZM157.168 49.3826L157.134 52.3824L159.503 52.4095L160.078 50.1114L157.168 49.3826ZM130.93 49.0831L127.93 49.0488L127.896 52.0486L130.896 52.0829L130.93 49.0831ZM131.278 18.5571L134.278 18.5913L134.312 15.5915L131.313 15.5573L131.278 18.5571ZM128.27 18.5227L125.353 17.8251L124.479 21.4796L128.236 21.5225L128.27 18.5227ZM131.43 5.30992L131.464 2.31012L129.069 2.28277L128.512 4.61231L131.43 5.30992ZM149.604 5.51742L149.57 8.51722L151.732 8.54191L152.439 6.49853L149.604 5.51742ZM150.2 3.79611L150.234 0.796303L148.072 0.771618L147.365 2.815L150.2 3.79611ZM162.423 3.93566L159.507 3.23219L155.812 18.551L158.728 19.2545L161.644 19.9579L165.34 4.63913L162.423 3.93566ZM158.728 19.2545L158.762 16.2547L145.003 16.0976L144.969 19.0974L144.935 22.0972L158.694 22.2543L158.728 19.2545ZM144.969 19.0974L141.969 19.0631L141.941 21.559L144.94 21.5932L147.94 21.6275L147.969 19.1316L144.969 19.0974ZM144.94 21.5932L144.906 24.593L160.969 24.7764L161.003 21.7766L161.038 18.7768L144.975 18.5934L144.94 21.5932ZM161.003 21.7766L158.11 20.9849L155.037 32.2146L157.931 33.0063L160.825 33.798L163.897 22.5683L161.003 21.7766ZM157.931 33.0063L157.965 30.0065L144.846 29.8567L144.812 32.8565L144.778 35.8563L157.897 36.0061L157.931 33.0063ZM144.812 32.8565L141.812 32.8222L141.781 35.5101L144.781 35.5443L147.781 35.5786L147.812 32.8907L144.812 32.8565ZM144.781 35.5443L144.747 38.5441L160.554 38.7246L160.588 35.7248L160.622 32.725L144.815 32.5445L144.781 35.5443ZM160.588 35.7248L157.678 34.996L154.258 48.6539L157.168 49.3826L160.078 50.1114L163.498 36.4535L160.588 35.7248ZM157.168 49.3826L157.202 46.3828L130.964 46.0833L130.93 49.0831L130.896 52.0829L157.134 52.3824L157.168 49.3826ZM130.93 49.0831L133.93 49.1173L134.278 18.5913L131.278 18.5571L128.278 18.5228L127.93 49.0488L130.93 49.0831ZM131.278 18.5571L131.313 15.5573L128.305 15.5229L128.27 18.5227L128.236 21.5225L131.244 21.5569L131.278 18.5571ZM128.27 18.5227L131.188 19.2203L134.347 6.00753L131.43 5.30992L128.512 4.61231L125.353 17.8251L128.27 18.5227ZM131.43 5.30992L131.395 8.30972L149.57 8.51722L149.604 5.51742L149.639 2.51762L131.464 2.31012L131.43 5.30992ZM149.604 5.51742L152.439 6.49853L153.035 4.77722L150.2 3.79611L147.365 2.815L146.769 4.53631L149.604 5.51742ZM150.2 3.79611L150.166 6.79591L162.389 6.93546L162.423 3.93566L162.457 0.935855L150.234 0.796303L150.2 3.79611ZM202.634 29.8775L199.64 29.6822L202.634 29.8775ZM194.87 45.6616L196.742 48.0062L196.746 48.0028L194.87 45.6616ZM164.982 49.6127L161.988 49.4175L161.793 52.4111L164.786 52.6064L164.982 49.6127ZM166.981 18.9579L169.975 19.1531L170.17 16.1595L167.176 15.9642L166.981 18.9579ZM163.979 18.7621L161.106 17.8997L160.022 21.5104L163.784 21.7557L163.979 18.7621ZM167.831 5.92954L168.026 2.9359L165.644 2.78051L164.957 5.06716L167.831 5.92954ZM197.958 14.0516L200.296 12.1715L200.291 12.1655L200.286 12.1595L197.958 14.0516ZM186.812 22.6885L184.531 24.6362L184.531 24.6362L186.812 22.6885ZM180.644 19.9131L180.839 16.9195L177.845 16.7242L177.65 19.7179L180.644 19.9131ZM179.544 36.7733L176.551 36.578L176.355 39.5717L179.349 39.7669L179.544 36.7733ZM185.876 35.0698L187.723 37.4339L187.727 37.431L185.876 35.0698ZM202.634 29.8775L199.64 29.6822C199.25 35.6721 196.997 40.1129 192.994 43.3205L194.87 45.6616L196.746 48.0028C202.217 43.6189 205.141 37.5369 205.628 30.0727L202.634 29.8775ZM194.87 45.6616L192.999 43.317C189.125 46.4089 184.216 47.8609 178.014 47.4563L177.818 50.45L177.623 53.4436C185.045 53.9277 191.504 52.1874 196.742 48.0062L194.87 45.6616ZM177.818 50.45L178.014 47.4563L165.177 46.6191L164.982 49.6127L164.786 52.6064L177.623 53.4436L177.818 50.45ZM164.982 49.6127L167.975 49.808L169.975 19.1531L166.981 18.9579L163.987 18.7626L161.988 49.4175L164.982 49.6127ZM166.981 18.9579L167.176 15.9642L164.175 15.7684L163.979 18.7621L163.784 21.7557L166.786 21.9515L166.981 18.9579ZM163.979 18.7621L166.853 19.6245L170.704 6.79191L167.831 5.92954L164.957 5.06716L161.106 17.8997L163.979 18.7621ZM167.831 5.92954L167.636 8.92318L183.218 9.93954L183.414 6.9459L183.609 3.95226L168.026 2.9359L167.831 5.92954ZM183.414 6.9459L183.218 9.93954C188.658 10.2943 192.694 12.3308 195.63 15.9437L197.958 14.0516L200.286 12.1595C196.177 7.10345 190.516 4.40277 183.609 3.95226L183.414 6.9459ZM197.958 14.0516L195.62 15.9316C198.62 19.662 199.999 24.1757 199.64 29.6822L202.634 29.8775L205.628 30.0727C206.074 23.2321 204.336 17.1952 200.296 12.1715L197.958 14.0516ZM188.695 29.2249L191.688 29.4201C191.902 26.1402 191.139 23.1361 189.094 20.7408L186.812 22.6885L184.531 24.6362C185.346 25.5914 185.837 26.9449 185.701 29.0296L188.695 29.2249ZM186.812 22.6885L189.094 20.7408C187.026 18.3181 184.139 17.1347 180.839 16.9195L180.644 19.9131L180.449 22.9068C182.513 23.0414 183.738 23.7083 184.531 24.6362L186.812 22.6885ZM180.644 19.9131L177.65 19.7179L176.551 36.578L179.544 36.7733L182.538 36.9686L183.637 20.1084L180.644 19.9131ZM179.544 36.7733L179.349 39.7669C182.476 39.9709 185.36 39.2805 187.723 37.4339L185.876 35.0698L184.03 32.7057C183.059 33.4637 181.721 33.9089 179.739 33.7797L179.544 36.7733ZM185.876 35.0698L187.727 37.431C190.231 35.4684 191.477 32.6614 191.688 29.4201L188.695 29.2249L185.701 29.0296C185.579 30.8975 184.946 31.9871 184.026 32.7086L185.876 35.0698ZM218.172 53.8866L217.829 56.867L220.809 57.2098L221.152 54.2295L218.172 53.8866ZM204.629 52.3285L201.649 51.9857L201.306 54.966L204.286 55.3089L204.629 52.3285ZM208.155 21.6827L211.135 22.0256L211.478 19.0452L208.498 18.7024L208.155 21.6827ZM205.167 21.3389L202.351 20.3031L201.034 23.8832L204.824 24.3192L205.167 21.3389ZM209.76 8.85405L210.103 5.87371L207.759 5.60405L206.944 7.81825L209.76 8.85405ZM223.175 10.3975L226.156 10.7404L226.499 7.76004L223.518 7.41716L223.175 10.3975ZM218.172 53.8866L218.515 50.9063L204.972 49.3482L204.629 52.3285L204.286 55.3089L217.829 56.867L218.172 53.8866ZM204.629 52.3285L207.61 52.6714L211.135 22.0256L208.155 21.6827L205.175 21.3398L201.649 51.9857L204.629 52.3285ZM208.155 21.6827L208.498 18.7024L205.51 18.3586L205.167 21.3389L204.824 24.3192L207.812 24.663L208.155 21.6827ZM205.167 21.3389L207.982 22.3747L212.575 9.88985L209.76 8.85405L206.944 7.81825L202.351 20.3031L205.167 21.3389ZM209.76 8.85405L209.417 11.8344L222.832 13.3778L223.175 10.3975L223.518 7.41716L210.103 5.87371L209.76 8.85405ZM223.175 10.3975L220.195 10.0546L215.192 53.5437L218.172 53.8866L221.152 54.2295L226.156 10.7404L223.175 10.3975ZM256.099 46.0768L259.052 46.6032L256.099 46.0768ZM249.082 56.2678L250.512 58.9053L250.524 58.8987L250.536 58.892L249.082 56.2678ZM222.256 51.0323L219.545 49.7474L218.534 51.8823L220.372 53.3665L222.256 51.0323ZM227.882 39.1631L229.549 36.6692L226.66 34.7372L225.171 37.8782L227.882 39.1631ZM233.052 42.6198L231.384 45.1136L231.437 45.1488L231.491 45.1816L233.052 42.6198ZM241.87 43.4762L238.917 42.9499L241.87 43.4762ZM237.873 39.6434L239.306 37.0079L239.306 37.0079L237.873 39.6434ZM230.115 34.2953L227.917 36.3375L227.931 36.3529L227.946 36.3681L230.115 34.2953ZM233.217 14.6957L234.73 17.2863L234.74 17.2807L233.217 14.6957ZM244.22 13.146L244.746 10.1925L244.22 13.146ZM246.236 13.5053L245.71 16.4588L246.236 13.5053ZM247.296 13.7592L246.505 16.6529L246.515 16.6559L246.526 16.6588L247.296 13.7592ZM249.09 14.2738L248.222 17.1456L250.592 17.8617L251.744 15.6709L249.09 14.2738ZM249.778 12.9663L250.858 10.1676L248.367 9.20578L247.123 11.5692L249.778 12.9663ZM260.726 17.1927L263.427 18.4986L264.845 15.5668L261.806 14.394L260.726 17.1927ZM254.446 30.1803L252.532 32.4904L255.48 34.9331L257.147 31.4863L254.446 30.1803ZM249.965 27.2365L251.415 24.6102L251.413 24.6092L249.965 27.2365ZM241.743 26.6813L238.789 26.155L241.743 26.6813ZM245.722 30.2509L247.19 27.6343L247.178 27.6278L247.167 27.6215L245.722 30.2509ZM253.28 35.6283L255.509 33.6201L255.503 33.6141L255.498 33.6082L253.28 35.6283ZM256.099 46.0768L253.145 45.5505C252.459 49.4019 250.618 51.9872 247.628 53.6437L249.082 56.2678L250.536 58.892C255.24 56.2856 258.077 52.0769 259.052 46.6032L256.099 46.0768ZM249.082 56.2678L247.652 53.6304C244.815 55.1685 241.362 55.6803 237.1 54.9209L236.574 57.8743L236.048 60.8278C241.364 61.7751 246.249 61.2159 250.512 58.9053L249.082 56.2678ZM236.574 57.8743L237.1 54.9209C232.67 54.1314 228.354 52.0994 224.141 48.698L222.256 51.0323L220.372 53.3665C225.252 57.3063 230.481 59.8357 236.048 60.8278L236.574 57.8743ZM222.256 51.0323L224.967 52.3171L230.593 40.448L227.882 39.1631L225.171 37.8782L219.545 49.7474L222.256 51.0323ZM227.882 39.1631L226.215 41.657L231.384 45.1136L233.052 42.6198L234.719 40.1259L229.549 36.6692L227.882 39.1631ZM233.052 42.6198L231.491 45.1816C233.78 46.5764 236.012 47.5598 238.149 47.9406L238.676 44.9872L239.202 42.0337C238.062 41.8306 236.546 41.2358 234.613 40.0579L233.052 42.6198ZM238.676 44.9872L238.149 47.9406C239.355 48.1555 240.824 48.2128 242.175 47.574C243.734 46.8366 244.565 45.4561 244.824 44.0025L241.87 43.4762L238.917 42.9499C238.918 42.941 238.947 42.7919 239.085 42.5966C239.233 42.3871 239.428 42.2357 239.609 42.1501C239.77 42.0743 239.848 42.0825 239.769 42.087C239.69 42.0915 239.509 42.0884 239.202 42.0337L238.676 44.9872ZM241.87 43.4762L244.824 44.0025C245.193 41.9306 243.905 40.386 243.082 39.5964C242.131 38.6848 240.815 37.8285 239.306 37.0079L237.873 39.6434L236.439 42.2789C237.775 43.0053 238.548 43.5615 238.929 43.9274C239.116 44.1064 239.103 44.1407 239.043 44.0206C238.969 43.8738 238.822 43.482 238.917 42.9499L241.87 43.4762ZM237.873 39.6434L239.306 37.0079C235.7 35.047 233.45 33.4432 232.283 32.2226L230.115 34.2953L227.946 36.3681C229.775 38.2816 232.696 40.2431 236.439 42.2789L237.873 39.6434ZM230.115 34.2953L232.312 32.2532C230.351 30.1424 229.604 27.6288 230.187 24.3619L227.233 23.8355L224.28 23.3092C223.395 28.2753 224.569 32.7349 227.917 36.3375L230.115 34.2953ZM227.233 23.8355L230.187 24.3619C230.804 20.895 232.358 18.6718 234.73 17.2863L233.217 14.6957L231.705 12.1051C227.595 14.5051 225.159 18.3751 224.28 23.3092L227.233 23.8355ZM233.217 14.6957L234.74 17.2807C237.041 15.9255 239.946 15.4317 243.694 16.0995L244.22 13.146L244.746 10.1925C239.925 9.33327 235.495 9.87257 231.695 12.1107L233.217 14.6957ZM244.22 13.146L243.694 16.0995L245.71 16.4588L246.236 13.5053L246.763 10.5518L244.746 10.1925L244.22 13.146ZM246.236 13.5053L245.71 16.4588C245.828 16.4797 246.078 16.5362 246.505 16.6529L247.296 13.7592L248.088 10.8655C247.605 10.7335 247.149 10.6207 246.763 10.5518L246.236 13.5053ZM247.296 13.7592L246.526 16.6588C246.98 16.7791 247.543 16.9404 248.222 17.1456L249.09 14.2738L249.957 11.4021C249.238 11.1847 248.606 11.003 248.066 10.8596L247.296 13.7592ZM249.09 14.2738L251.744 15.6709L252.433 14.3633L249.778 12.9663L247.123 11.5692L246.435 12.8768L249.09 14.2738ZM249.778 12.9663L248.697 15.765L259.646 19.9914L260.726 17.1927L261.806 14.394L250.858 10.1676L249.778 12.9663ZM260.726 17.1927L258.025 15.8867L251.745 28.8744L254.446 30.1803L257.147 31.4863L263.427 18.4986L260.726 17.1927ZM254.446 30.1803L256.36 27.8702C255.035 26.7724 253.369 25.6889 251.415 24.6102L249.965 27.2365L248.515 29.8628C250.27 30.8319 251.591 31.7109 252.532 32.4904L254.446 30.1803ZM249.965 27.2365L251.413 24.6092C249.274 23.4303 247.3 22.5441 245.653 22.2506L245.127 25.2041L244.6 28.1575C245.222 28.2683 246.473 28.737 248.517 29.8638L249.965 27.2365ZM245.127 25.2041L245.653 22.2506C244.41 22.0291 242.927 21.9611 241.568 22.5545C239.972 23.2511 239.062 24.6226 238.789 26.155L241.743 26.6813L244.696 27.2077C244.69 27.2426 244.651 27.4152 244.495 27.6245C244.331 27.845 244.128 27.9837 243.969 28.0533C243.831 28.1133 243.786 28.0968 243.908 28.0916C244.028 28.0865 244.251 28.0953 244.6 28.1575L245.127 25.2041ZM241.743 26.6813L238.789 26.155C238.588 27.2858 238.942 28.2437 239.312 28.8816C239.676 29.5103 240.165 30.0266 240.622 30.437C241.54 31.2602 242.807 32.0725 244.278 32.8803L245.722 30.2509L247.167 27.6215C245.835 26.8897 245.037 26.3372 244.629 25.9706C244.423 25.7861 244.432 25.7512 244.503 25.8724C244.578 26.0028 244.823 26.4969 244.696 27.2077L241.743 26.6813ZM245.722 30.2509L244.255 32.8675C247.818 34.8657 249.986 36.4671 251.062 37.6483L253.28 35.6283L255.498 33.6082C253.747 31.6852 250.876 29.7018 247.19 27.6343L245.722 30.2509ZM253.28 35.6283L251.051 37.6365C252.993 39.791 253.721 42.3205 253.145 45.5505L256.099 46.0768L259.052 46.6032C259.929 41.6842 258.778 37.248 255.509 33.6201L253.28 35.6283Z" fill="black" mask="url(#path-1-outside-1_1523_3053)"/>
</g>
<defs>
<filter id="filter0_dd_1523_3053" x="0.59375" y="0.771484" width="264.25" height="71.5469" filterUnits="userSpaceOnUse" color-interpolation-filters="sRGB">
<feFlood flood-opacity="0" result="BackgroundImageFix"/>
<feColorMatrix in="SourceAlpha" type="matrix" values="0 0 0 0 0 0 0 0 0 0 0 0 0 0 0 0 0 0 127 0" result="hardAlpha"/>
<feOffset dy="8"/>
<feComposite in2="hardAlpha" operator="out"/>
<feColorMatrix type="matrix" values="0 0 0 0 0 0 0 0 0 0 0 0 0 0 0 0 0 0 0.25 0"/>
<feBlend mode="normal" in2="BackgroundImageFix" result="effect1_dropShadow_1523_3053"/>
<feColorMatrix in="SourceAlpha" type="matrix" values="0 0 0 0 0 0 0 0 0 0 0 0 0 0 0 0 0 0 127 0" result="hardAlpha"/>
<feOffset dx="-5" dy="5"/>
<feComposite in2="hardAlpha" operator="out"/>
<feColorMatrix type="matrix" values="0 0 0 0 0 0 0 0 0 0 0 0 0 0 0 0 0 0 1 0"/>
<feBlend mode="normal" in2="effect1_dropShadow_1523_3053" result="effect2_dropShadow_1523_3053"/>
<feBlend mode="normal" in="SourceGraphic" in2="effect2_dropShadow_1523_3053" result="shape"/>
</filter>
</defs>
</svg>
