<svg width="20" height="24" viewBox="0 0 20 24" fill="none" xmlns="http://www.w3.org/2000/svg">
<g filter="url(#filter0_d_1518_2001)">
<path d="M7 3V1H13V3H7ZM9 14H11V8H9V14ZM10 22C8.76667 22 7.60417 21.7625 6.5125 21.2875C5.42083 20.8125 4.46667 20.1667 3.65 19.35C2.83333 18.5333 2.1875 17.5792 1.7125 16.4875C1.2375 15.3958 1 14.2333 1 13C1 11.7667 1.2375 10.6042 1.7125 9.5125C2.1875 8.42083 2.83333 7.46667 3.65 6.65C4.46667 5.83333 5.42083 5.1875 6.5125 4.7125C7.60417 4.2375 8.76667 4 10 4C11.0333 4 12.025 4.16667 12.975 4.5C13.925 4.83333 14.8167 5.31667 15.65 5.95L17.05 4.55L18.45 5.95L17.05 7.35C17.6833 8.18333 18.1667 9.075 18.5 10.025C18.8333 10.975 19 11.9667 19 13C19 14.2333 18.7625 15.3958 18.2875 16.4875C17.8125 17.5792 17.1667 18.5333 16.35 19.35C15.5333 20.1667 14.5792 20.8125 13.4875 21.2875C12.3958 21.7625 11.2333 22 10 22Z" fill="#E3E3E3"/>
<path d="M10 3.5C11.0882 3.5 12.136 3.67583 13.1406 4.02832C14.0076 4.33252 14.8266 4.75525 15.5977 5.29395L16.6963 4.19629L17.0498 3.84277L19.1572 5.9502L18.8037 6.30371L17.7051 7.40137C18.2441 8.17278 18.6673 8.99201 18.9717 9.85938C19.3242 10.864 19.5 11.9118 19.5 13C19.5 14.2993 19.2493 15.5298 18.7461 16.6865C18.2469 17.8339 17.5655 18.8408 16.7031 19.7031C15.8408 20.5655 14.8339 21.2469 13.6865 21.7461C12.5298 22.2493 11.2993 22.5 10 22.5C8.70071 22.5 7.47023 22.2493 6.31348 21.7461C5.16614 21.2469 4.15924 20.5655 3.29688 19.7031C2.43451 18.8408 1.75313 17.8339 1.25391 16.6865C0.750656 15.5298 0.5 14.2993 0.5 13C0.5 11.7007 0.750656 10.4702 1.25391 9.31348C1.75313 8.16614 2.43451 7.15924 3.29688 6.29688C4.15924 5.43451 5.16614 4.75313 6.31348 4.25391C7.47023 3.75066 8.70071 3.5 10 3.5ZM9.5 13.5H10.5V8.5H9.5V13.5ZM13.5 0.5V3.5H6.5V0.5H13.5Z" stroke="black"/>
</g>
<defs>
<filter id="filter0_d_1518_2001" x="0" y="0" width="20" height="24" filterUnits="userSpaceOnUse" color-interpolation-filters="sRGB">
<feFlood flood-opacity="0" result="BackgroundImageFix"/>
<feColorMatrix in="SourceAlpha" type="matrix" values="0 0 0 0 0 0 0 0 0 0 0 0 0 0 0 0 0 0 127 0" result="hardAlpha"/>
<feOffset dy="1"/>
<feComposite in2="hardAlpha" operator="out"/>
<feColorMatrix type="matrix" values="0 0 0 0 0 0 0 0 0 0 0 0 0 0 0 0 0 0 1 0"/>
<feBlend mode="normal" in2="BackgroundImageFix" result="effect1_dropShadow_1518_2001"/>
<feBlend mode="normal" in="SourceGraphic" in2="effect1_dropShadow_1518_2001" result="shape"/>
</filter>
</defs>
</svg>
